<svg xmlns="http://www.w3.org/2000/svg" width="32" height="32" viewBox="0 0 32 32">
  <!-- White background -->
  <rect width="32" height="32" fill="white"/>
  
  <!-- Clean 4-point star using curves -->
  <path d="M13 2 C13 9 13 11 13 13 C11 13 9 13 2 13 C9 13 11 13 13 13 C13 15 13 17 13 26 C13 17 13 15 13 13 C15 13 17 13 24 13 C17 13 15 13 13 13 Z" 
        fill="#22d3ee" stroke="#22d3ee" stroke-width="3" stroke-linejoin="round"/>
  
  <!-- Plus badge white outline -->
  <circle cx="25" cy="7" r="6.5" fill="white"/>
  <!-- Plus badge cyan fill -->
  <circle cx="25" cy="7" r="5" fill="#22d3ee"/>
  <!-- Plus sign -->
  <path d="M25 4.5 V9.5 M22.5 7 H27.5" stroke="white" stroke-width="2" stroke-linecap="round"/>
</svg>